<svg viewBox="0 0 24 24" xmlns="http://www.w3.org/2000/svg">
  <g fill="none" fill-rule="evenodd">
    <path d="M22.224,0 L1.77,0 C0.793333333,0 0,0.774666667 0,1.73066667 L0,22.268 C0,23.224 0.793333333,24 1.77,24 L22.224,24 C23.2026667,24 23.9993333,23.224 23.9993333,22.268 L23.9993333,1.73066667 C23.9993333,0.774666667 23.2026667,0 22.224,0" fill="#DDD" class="Icon-path"/>
    <path d="M5.33866667,3.304 C6.47733333,3.304 7.40133333,4.22866667 7.40133333,5.368 C7.40133333,6.508 6.47733333,7.43266667 5.33866667,7.43266667 C4.19533333,7.43266667 3.27333333,6.508 3.27333333,5.368 C3.27333333,4.22866667 4.19533333,3.304 5.33866667,3.304 L5.33866667,3.304 Z M3.556,20.4506667 L7.11933333,20.4506667 L7.11933333,8.99733333 L3.556,8.99733333 L3.556,20.4506667 Z" fill="#FFF"/>
    <path d="M9.352,8.99733333 L12.764,8.99733333 L12.764,10.5633333 L12.8133333,10.5633333 C13.288,9.66266667 14.4493333,8.71333333 16.1806667,8.71333333 C19.7853333,8.71333333 20.4513333,11.0846667 20.4513333,14.1693333 L20.4513333,20.4506667 L16.892,20.4506667 L16.892,14.8806667 C16.892,13.5526667 16.8693333,11.844 15.0426667,11.844 C13.19,11.844 12.9073333,13.2913333 12.9073333,14.786 L12.9073333,20.4506667 L9.352,20.4506667 L9.352,8.99733333" fill="#FFF"/>
  </g>
</svg>
