<svg xmlns="http://www.w3.org/2000/svg" viewBox="0 0 24 24">
  <path fill="#DDD" fill-rule="evenodd" d="M12.03.43C5.52.43.24 5.71.24 12.225c0 5.208 3.377 9.63 8.063 11.188.59.107.805-.256.805-.57 0-.278-.01-1.02-.015-2.004-3.28.712-3.972-1.58-3.972-1.58-.535-1.362-1.31-1.725-1.31-1.725-1.07-.73.082-.717.082-.717 1.184.083 1.806 1.215 1.806 1.215 1.052 1.803 2.76 1.282 3.43.98.11-.762.413-1.28.75-1.575-2.617-.3-5.37-1.31-5.37-5.828 0-1.287.46-2.34 1.215-3.164-.122-.3-.527-1.498.115-3.12 0 0 .99-.318 3.243 1.21.94-.264 1.95-.395 2.952-.4 1 .005 2.01.136 2.952.397 2.252-1.525 3.24-1.21 3.24-1.21.642 1.623.238 2.822.117 3.122.756.823 1.213 1.876 1.213 3.163 0 4.53-2.756 5.527-5.383 5.818.424.365.8 1.084.8 2.184 0 1.576-.015 2.847-.015 3.235 0 .316.213.682.812.567 4.68-1.563 8.056-5.98 8.056-11.188 0-6.51-5.28-11.79-11.793-11.79z" class="Icon-path"/>
</svg>