<svg viewBox="0 0 16 16">
  <path fill="#ddd" d="M15.97 3.058c-.587.26-1.218.436-1.88.515.676-.405 1.195-1.045 1.44-1.81-.633.376-1.333.648-2.077.794-.596-.636-1.446-1.033-2.387-1.033-1.806 0-3.27 1.464-3.27 3.27 0 .256.03.506.085.745C5.164 5.403 2.754 4.1 1.14 2.123.86 2.607.698 3.168.698 3.767c0 1.134.577 2.135 1.455 2.722-.537-.018-1.04-.165-1.482-.41v.04c0 1.585 1.128 2.907 2.624 3.207-.274.075-.563.115-.86.115-.212 0-.417-.02-.616-.06.416 1.3 1.624 2.246 3.055 2.272-1.12.877-2.53 1.4-4.06 1.4-.265 0-.525-.015-.78-.046 1.446.928 3.165 1.47 5.012 1.47 6.015 0 9.304-4.984 9.304-9.305 0-.142-.004-.283-.01-.423.636-.46 1.19-1.036 1.63-1.692z" class="Icon-path"/>
</svg>